<?xml version="1.0" standalone="no"?>
<!DOCTYPE svg PUBLIC "-//W3C//DTD SVG 20010904//EN"
 "http://www.w3.org/TR/2001/REC-SVG-20010904/DTD/svg10.dtd">
<svg version="1.0" xmlns="http://www.w3.org/2000/svg"
 width="512.000000pt" height="512.000000pt" viewBox="0 0 512.000000 512.000000"
 preserveAspectRatio="xMidYMid meet">

<g transform="translate(0.000000,512.000000) scale(0.100000,-0.100000)"
fill="#000000" stroke="none">
<path d="M1352 4674 c-39 -20 -75 -52 -144 -132 -50 -59 -97 -113 -103 -120
-9 -10 -21 -7 -61 15 l-49 28 -374 3 c-425 3 -436 2 -518 -72 -27 -24 -59 -65
-73 -92 l-25 -49 -3 -355 c-2 -238 0 -372 8 -407 21 -97 97 -180 195 -214 31
-11 118 -14 400 -14 410 0 420 2 506 82 73 68 91 122 97 282 l5 135 220 255
c120 141 230 272 243 292 14 19 29 60 36 90 17 84 -8 159 -75 224 -83 80 -187
98 -285 49z m176 -149 c36 -30 47 -75 28 -118 -24 -53 -662 -790 -698 -805
-51 -22 -91 -8 -135 46 -92 111 -234 303 -243 328 -37 97 92 179 166 106 16
-15 55 -60 87 -100 50 -63 61 -72 90 -72 41 0 48 7 331 340 119 140 231 265
248 278 41 29 89 29 126 -3z m-547 -222 c9 -9 -6 -33 -66 -102 -43 -50 -81
-91 -85 -91 -4 0 -26 23 -50 51 -125 149 -342 126 -432 -44 -27 -50 -30 -152
-6 -207 15 -35 234 -327 292 -388 100 -107 259 -107 369 -1 28 27 52 47 54 45
13 -12 -22 -88 -52 -114 -46 -41 -80 -44 -445 -40 -297 3 -306 4 -341 26 -68
41 -69 50 -69 429 0 378 1 385 70 431 l34 23 358 -3 c258 -2 360 -6 369 -15z"/>
<path d="M2038 4451 c-73 -29 -123 -74 -157 -143 l-31 -61 0 -372 c0 -422 1
-431 76 -514 26 -29 65 -58 96 -72 l53 -24 1360 -3 c830 -2 1384 1 1422 7 34
5 79 18 100 27 51 25 111 87 137 143 20 45 21 58 21 431 l0 385 -25 49 c-14
27 -46 68 -72 91 -86 77 -64 75 -759 75 -340 0 -625 -3 -634 -6 -8 -4 -22 -19
-30 -34 -19 -36 -4 -83 31 -99 18 -8 200 -11 633 -11 l608 0 34 -23 c68 -45
69 -53 69 -430 0 -379 -1 -388 -69 -429 l-36 -23 -1380 0 c-1310 0 -1382 1
-1413 18 -18 10 -42 32 -52 50 -19 30 -20 53 -20 386 0 337 1 355 20 386 41
67 22 65 698 65 601 0 610 0 636 21 34 27 36 77 3 107 l-23 22 -625 0 c-582
-1 -627 -2 -671 -19z"/>
<path d="M2309 3922 c-30 -25 -30 -75 0 -105 l22 -22 1153 0 c1121 0 1155 1
1175 19 27 25 28 79 1 106 -20 20 -33 20 -1174 20 -1106 0 -1155 -1 -1177 -18z"/>
<path d="M1398 3271 c-65 -21 -113 -61 -204 -168 -53 -62 -98 -113 -99 -113
-2 0 -27 12 -57 28 l-53 27 -380 0 -380 0 -57 -28 c-69 -34 -121 -91 -148
-165 -20 -53 -21 -72 -18 -426 l3 -371 27 -50 c34 -64 80 -108 143 -137 49
-22 59 -23 399 -26 384 -3 427 1 501 50 97 65 135 161 135 347 l0 96 231 270
c127 149 239 286 249 305 60 117 14 266 -104 335 -47 27 -142 41 -188 26z
m118 -160 c43 -26 60 -77 41 -123 -13 -31 -605 -732 -668 -790 -36 -34 -94
-38 -131 -9 -28 22 -236 289 -269 346 -19 32 -20 41 -10 76 15 51 61 82 109
75 43 -6 53 -15 125 -106 71 -89 97 -107 137 -90 16 7 115 114 241 263 118
138 236 275 263 305 70 76 105 88 162 53z m-543 -225 c9 -4 17 -11 17 -15 0
-5 -50 -66 -132 -160 l-30 -34 -26 34 c-75 97 -153 136 -249 125 -105 -12
-189 -81 -217 -177 -34 -113 -15 -160 146 -369 70 -91 141 -180 157 -198 42
-45 104 -72 171 -72 86 0 124 15 191 78 l62 57 -8 -35 c-12 -58 -33 -89 -75
-110 -37 -19 -58 -20 -377 -20 -372 0 -382 2 -427 63 -20 27 -21 43 -24 370
-2 227 0 355 8 379 11 38 56 81 95 91 33 9 698 2 718 -7z"/>
<path d="M2077 3039 c-83 -20 -162 -82 -203 -159 -17 -32 -19 -67 -22 -423
l-3 -388 24 -53 c29 -62 82 -117 146 -148 l46 -23 1410 0 c1359 0 1412 1 1459
19 63 24 121 77 154 140 l27 51 3 371 c3 354 2 373 -18 426 -27 74 -79 131
-148 165 l-57 28 -1390 2 c-792 1 -1406 -3 -1428 -8z m2836 -172 c23 -17 40
-42 47 -65 8 -24 10 -152 8 -379 -3 -327 -4 -343 -24 -370 -11 -15 -36 -36
-55 -45 -32 -17 -119 -18 -1402 -18 -1496 0 -1407 -4 -1460 59 l-27 33 0 354
c0 376 1 385 48 427 11 10 33 22 48 27 16 5 648 8 1405 7 l1376 -2 36 -28z"/>
<path d="M2323 2508 c-35 -17 -48 -60 -29 -96 8 -16 23 -32 31 -36 9 -3 533
-6 1164 -6 l1148 0 21 23 c31 33 29 80 -4 106 -27 21 -28 21 -1168 20 -777 0
-1148 -4 -1163 -11z"/>
<path d="M115 1606 c-39 -18 -80 -62 -99 -108 -24 -56 -24 -900 -1 -956 20
-47 50 -79 97 -103 35 -18 65 -19 488 -19 383 0 456 2 487 15 48 20 70 41 97
90 20 39 21 53 24 464 2 278 -1 441 -8 474 -13 62 -49 111 -100 137 -37 19
-59 20 -497 20 -360 -1 -464 -4 -488 -14z m935 -156 c7 -13 10 -156 8 -440 -3
-361 -5 -422 -18 -430 -24 -15 -863 -13 -878 2 -17 17 -17 859 0 876 9 9 121
12 445 12 422 0 433 0 443 -20z"/>
<path d="M2045 1607 c-83 -33 -128 -72 -167 -147 -23 -45 -23 -49 -26 -420 -2
-258 1 -388 8 -416 19 -67 77 -134 149 -171 l63 -33 632 0 633 0 21 23 c27 29
28 67 3 98 l-19 24 -629 5 c-683 5 -657 3 -693 63 -19 30 -20 53 -20 385 0
390 1 394 63 432 31 20 61 20 1424 20 l1391 0 32 -26 c60 -51 60 -51 60 -424
0 -368 0 -369 -55 -420 l-27 -25 -629 -5 -628 -5 -22 -22 c-30 -30 -30 -80 0
-105 22 -17 56 -18 647 -18 598 0 625 1 677 20 63 24 127 84 159 149 23 45 23
51 23 431 0 371 -1 387 -21 431 -28 60 -85 116 -148 145 l-51 24 -1410 -1
c-1056 0 -1418 -3 -1440 -12z"/>
<path d="M2335 1090 c-49 -19 -64 -82 -30 -120 18 -20 28 -20 1177 -20 1145 0
1158 0 1178 20 38 38 22 100 -31 119 -38 13 -2262 15 -2294 1z"/>
</g>
</svg>
